<svg width="302" height="725" viewBox="0 0 302 725" fill="none" xmlns="http://www.w3.org/2000/svg">
<path d="M94 662.441L95.9619 667.743L96.0417 667.958L96.2573 668.038L101.559 670L96.2573 671.962L96.0417 672.042L95.9619 672.257L94 677.559L92.0381 672.257L91.9583 672.042L91.7427 671.962L86.4408 670L91.7427 668.038L91.9583 667.958L92.0381 667.743L94 662.441Z" fill="#BCEC30" stroke="#202027"/>
<path d="M135.5 685.506L140.295 699.129L140.371 699.346L140.585 699.429L153.621 704.5L140.585 709.571L140.371 709.654L140.295 709.871L135.5 723.494L130.705 709.871L130.629 709.654L130.415 709.571L117.379 704.5L130.415 699.429L130.629 699.346L130.705 699.129L135.5 685.506Z" fill="#BCEC30" stroke="#202027"/>
<path d="M191.226 114.108C194.072 114.89 273.284 147.926 273.284 147.926L189.242 156.825L242.335 224.072L167.485 178.137L159.858 255.995L138.761 174.003L68.4419 213.004L116.882 155.759L30.9171 151.894L111.719 127.992L51.6779 59.7755L136.09 98.9496L155.408 23.3638L164.083 99.1118L240.973 46.8639L191.226 114.108Z" fill="#BCEC30" stroke="#202027" stroke-miterlimit="10" stroke-linecap="round"/>
</svg>
