<svg width="1075" height="1132" viewBox="0 0 1075 1132" fill="none" xmlns="http://www.w3.org/2000/svg">
<path d="M241.793 324L318 412.38L1 487" stroke="#202027" stroke-linecap="round"/>
<path d="M708.682 382.406C718.111 385.031 980.516 495.965 980.516 495.965L702.111 525.848L877.994 751.66L630.036 597.412L604.772 858.856L534.884 583.531L301.938 714.493L462.405 522.266L177.63 509.289L445.302 429.027L246.404 199.959L526.036 331.504L590.031 77.6902L618.768 332.048L873.48 156.602L708.682 382.406Z" fill="#BCEC30" stroke="#202027" stroke-miterlimit="10" stroke-linecap="round"/>
<path d="M232.082 588H356L214 767" stroke="#202027" stroke-linecap="round"/>
<path d="M372 792.046L485.76 713L591.882 1131" stroke="#202027" stroke-linecap="round"/>
<path d="M450.159 802L394 860.765L474 928L450.159 802Z" fill="#BCEC30" stroke="#202027" stroke-linecap="round"/>
<path d="M492 997L526 1121" stroke="#202027" stroke-linecap="round"/>
<path d="M77.5 906.441L82.0278 918.677L82.1075 918.892L82.3232 918.972L94.5592 923.5L82.3232 928.028L82.1075 928.108L82.0278 928.323L77.5 940.559L72.9722 928.323L72.8925 928.108L72.6768 928.028L60.4408 923.5L72.6768 918.972L72.8925 918.892L72.9722 918.677L77.5 906.441Z" fill="#BCEC30" stroke="#202027"/>
<path d="M165.5 936.441L176.24 965.465L176.32 965.68L176.535 965.76L205.559 976.5L176.535 987.24L176.32 987.32L176.24 987.535L165.5 1016.56L154.76 987.535L154.68 987.32L154.465 987.24L125.441 976.5L154.465 965.76L154.68 965.68L154.76 965.465L165.5 936.441Z" stroke="#202027"/>
</svg>
